solid B8A9
facet normal 8.393025723307801e-07 0.0006001724977977574 -0.9999998211860657
  outer loop
    vertex 28.66978454589844 32.13980865478516 3.97037935256958
    vertex 31.42086601257324 30.20904541015625 3.969222784042358
    vertex 28.49322509765625 31.91181564331055 3.970241069793701
  endloop
endfacet
facet normal 8.393025723307801e-07 0.0006001724977977574 -0.9999998211860657
  outer loop
    vertex 31.42086601257324 30.20904541015625 3.969222784042358
    vertex 28.66978454589844 32.13980865478516 3.97037935256958
    vertex 28.8624210357666 32.36055755615234 3.970511674880981
  endloop
endfacet
facet normal 8.393025723307801e-07 0.0006001724977977574 -0.9999998211860657
  outer loop
    vertex 31.42086601257324 30.20904541015625 3.969222784042358
    vertex 28.8624210357666 32.36055755615234 3.970511674880981
    vertex 29.06709289550781 32.56917953491211 3.970636606216431
  endloop
endfacet
facet normal 8.393025723307801e-07 0.0006001724977977574 -0.9999998211860657
  outer loop
    vertex 31.42086601257324 30.20904541015625 3.969222784042358
    vertex 29.06709289550781 32.56917953491211 3.970636606216431
    vertex 29.28183937072754 32.76588439941406 3.970754384994507
  endloop
endfacet
facet normal 8.393025723307801e-07 0.0006001724977977574 -0.9999998211860657
  outer loop
    vertex 31.42086601257324 30.20904541015625 3.969222784042358
    vertex 29.28183937072754 32.76588439941406 3.970754384994507
    vertex 37.45147705078125 28.01588821411133 3.967909812927246
  endloop
endfacet
facet normal 8.393025723307801e-07 0.0006001724977977574 -0.9999998211860657
  outer loop
    vertex 31.42086601257324 30.20904541015625 3.969222784042358
    vertex 37.45147705078125 28.01588821411133 3.967909812927246
    vertex 31.76281547546387 30.01104736328125 3.969100713729858
  endloop
endfacet
facet normal 8.393025723307801e-07 0.0006001724977977574 -0.9999998211860657
  outer loop
    vertex 31.76281547546387 30.01104736328125 3.969100713729858
    vertex 37.45147705078125 28.01588821411133 3.967909812927246
    vertex 32.03084945678711 29.85501098632812 3.969009160995483
  endloop
endfacet
facet normal 8.393025723307801e-07 0.0006001724977977574 -0.9999998211860657
  outer loop
    vertex 32.03084945678711 29.85501098632812 3.969009160995483
    vertex 37.45147705078125 28.01588821411133 3.967909812927246
    vertex 32.27083969116211 29.71502685546875 3.96892523765564
  endloop
endfacet
facet normal 8.393025723307801e-07 0.0006001724977977574 -0.9999998211860657
  outer loop
    vertex 32.27083969116211 29.71502685546875 3.96892523765564
    vertex 37.45147705078125 28.01588821411133 3.967909812927246
    vertex 37.10085678100586 26.90704345703125 3.967246770858765
  endloop
endfacet
facet normal 8.393025723307801e-07 0.0006001724977977574 -0.9999998211860657
  outer loop
    vertex 37.10085678100586 26.90704345703125 3.967246770858765
    vertex 37.45147705078125 28.01588821411133 3.967909812927246
    vertex 37.21064376831055 27.17295837402344 3.967404842376709
  endloop
endfacet
facet normal 8.393025723307801e-07 0.0006001724977977574 -0.9999998211860657
  outer loop
    vertex 37.21064376831055 27.17295837402344 3.967404842376709
    vertex 37.45147705078125 28.01588821411133 3.967909812927246
    vertex 37.30895614624023 27.44991111755371 3.967570781707764
  endloop
endfacet
facet normal 8.393025723307801e-07 0.0006001724977977574 -0.9999998211860657
  outer loop
    vertex 37.30895614624023 27.44991111755371 3.967570781707764
    vertex 37.45147705078125 28.01588821411133 3.967909812927246
    vertex 37.38722991943359 27.73091316223145 3.967739105224609
  endloop
endfacet
facet normal -8.393025723307801e-07 -0.0006001724977977574 0.9999998211860657
  outer loop
    vertex 31.42086410522461 30.20870971679688 4.52922248840332
    vertex 28.66978454589844 32.13947296142578 4.530379295349121
    vertex 28.49322509765625 31.91147994995117 4.530241012573242
  endloop
endfacet
facet normal -8.393025723307801e-07 -0.0006001724977977574 0.9999998211860657
  outer loop
    vertex 28.66978454589844 32.13947296142578 4.530379295349121
    vertex 31.42086410522461 30.20870971679688 4.52922248840332
    vertex 28.8624210357666 32.36022186279297 4.530511379241943
  endloop
endfacet
facet normal -8.393025723307801e-07 -0.0006001724977977574 0.9999998211860657
  outer loop
    vertex 28.8624210357666 32.36022186279297 4.530511379241943
    vertex 31.42086410522461 30.20870971679688 4.52922248840332
    vertex 29.06709289550781 32.56884384155273 4.530636310577393
  endloop
endfacet
facet normal -8.393025723307801e-07 -0.0006001724977977574 0.9999998211860657
  outer loop
    vertex 29.06709289550781 32.56884384155273 4.530636310577393
    vertex 31.42086410522461 30.20870971679688 4.52922248840332
    vertex 29.28183937072754 32.76554870605469 4.530754566192627
  endloop
endfacet
facet normal -8.393025723307801e-07 -0.0006001724977977574 0.9999998211860657
  outer loop
    vertex 29.28183937072754 32.76554870605469 4.530754566192627
    vertex 31.42086410522461 30.20870971679688 4.52922248840332
    vertex 37.45147323608398 28.01555252075195 4.527909755706787
  endloop
endfacet
facet normal -8.393025723307801e-07 -0.0006001724977977574 0.9999998211860657
  outer loop
    vertex 37.45147323608398 28.01555252075195 4.527909755706787
    vertex 31.42086410522461 30.20870971679688 4.52922248840332
    vertex 31.76281356811523 30.01071166992188 4.52910041809082
  endloop
endfacet
facet normal -8.393025723307801e-07 -0.0006001724977977574 0.9999998211860657
  outer loop
    vertex 37.45147323608398 28.01555252075195 4.527909755706787
    vertex 31.76281356811523 30.01071166992188 4.52910041809082
    vertex 32.03084945678711 29.85467529296875 4.529008865356445
  endloop
endfacet
facet normal -8.393025723307801e-07 -0.0006001724977977574 0.9999998211860657
  outer loop
    vertex 37.45147323608398 28.01555252075195 4.527909755706787
    vertex 32.03084945678711 29.85467529296875 4.529008865356445
    vertex 32.27083969116211 29.71469116210938 4.528924942016602
  endloop
endfacet
facet normal -8.393025723307801e-07 -0.0006001724977977574 0.9999998211860657
  outer loop
    vertex 37.45147323608398 28.01555252075195 4.527909755706787
    vertex 32.27083969116211 29.71469116210938 4.528924942016602
    vertex 37.10085678100586 26.90670776367188 4.527246475219727
  endloop
endfacet
facet normal -8.393025723307801e-07 -0.0006001724977977574 0.9999998211860657
  outer loop
    vertex 37.45147323608398 28.01555252075195 4.527909755706787
    vertex 37.10085678100586 26.90670776367188 4.527246475219727
    vertex 37.21064376831055 27.17262268066406 4.52740478515625
  endloop
endfacet
facet normal -8.393025723307801e-07 -0.0006001724977977574 0.9999998211860657
  outer loop
    vertex 37.45147323608398 28.01555252075195 4.527909755706787
    vertex 37.21064376831055 27.17262268066406 4.52740478515625
    vertex 37.30895614624023 27.44957542419434 4.527570724487305
  endloop
endfacet
facet normal -8.393025723307801e-07 -0.0006001724977977574 0.9999998211860657
  outer loop
    vertex 37.45147323608398 28.01555252075195 4.527909755706787
    vertex 37.30895614624023 27.44957542419434 4.527570724487305
    vertex 37.38722991943359 27.73057746887207 4.52773904800415
  endloop
endfacet
facet normal -0.6754579544067383 0.7373983263969421 0.0004419994074851274
  outer loop
    vertex 29.06709289550781 32.56884384155273 4.530636310577393
    vertex 29.28183937072754 32.76588439941406 3.970754384994507
    vertex 29.06709289550781 32.56917953491211 3.970636606216431
  endloop
endfacet
facet normal -0.6754579544067383 0.7373983263969421 0.0004419994074851274
  outer loop
    vertex 29.28183937072754 32.76588439941406 3.970754384994507
    vertex 29.06709289550781 32.56884384155273 4.530636310577393
    vertex 29.28183937072754 32.76554870605469 4.530754566192627
  endloop
endfacet
facet normal 0.5026370882987976 0.8644973635673523 0.0005192695534788072
  outer loop
    vertex 29.28183937072754 32.76588439941406 3.970754384994507
    vertex 37.45147323608398 28.01555252075195 4.527909755706787
    vertex 37.45147705078125 28.01588821411133 3.967909812927246
  endloop
endfacet
facet normal 0.5026370882987976 0.8644973635673523 0.0005192695534788072
  outer loop
    vertex 37.45147323608398 28.01555252075195 4.527909755706787
    vertex 29.28183937072754 32.76588439941406 3.970754384994507
    vertex 29.28183937072754 32.76554870605469 4.530754566192627
  endloop
endfacet
facet normal 0.9755164980888367 -0.2199261635541916 -0.0001311749074375257
  outer loop
    vertex 37.38722991943359 27.73091316223145 3.967739105224609
    vertex 37.45147323608398 28.01555252075195 4.527909755706787
    vertex 37.38722991943359 27.73057746887207 4.52773904800415
  endloop
endfacet
facet normal 0.9755164980888367 -0.2199261635541916 -0.0001311749074375257
  outer loop
    vertex 37.45147323608398 28.01555252075195 4.527909755706787
    vertex 37.38722991943359 27.73091316223145 3.967739105224609
    vertex 37.45147705078125 28.01588821411133 3.967909812927246
  endloop
endfacet
facet normal 0.9633251428604126 -0.2683367729187012 -0.0001602398697286844
  outer loop
    vertex 37.30895614624023 27.44991111755371 3.967570781707764
    vertex 37.38722991943359 27.73057746887207 4.52773904800415
    vertex 37.30895614624023 27.44957542419434 4.527570724487305
  endloop
endfacet
facet normal 0.9633251428604126 -0.2683367729187012 -0.0001602398697286844
  outer loop
    vertex 37.38722991943359 27.73057746887207 4.52773904800415
    vertex 37.30895614624023 27.44991111755371 3.967570781707764
    vertex 37.38722991943359 27.73091316223145 3.967739105224609
  endloop
endfacet
facet normal 0.9423885345458984 -0.3345201909542084 -0.0001999789237743244
  outer loop
    vertex 37.21064376831055 27.17295837402344 3.967404842376709
    vertex 37.30895614624023 27.44957542419434 4.527570724487305
    vertex 37.21064376831055 27.17262268066406 4.52740478515625
  endloop
endfacet
facet normal 0.9423885345458984 -0.3345201909542084 -0.0001999789237743244
  outer loop
    vertex 37.30895614624023 27.44957542419434 4.527570724487305
    vertex 37.21064376831055 27.17295837402344 3.967404842376709
    vertex 37.30895614624023 27.44991111755371 3.967570781707764
  endloop
endfacet
facet normal 0.9243196845054626 -0.38161900639534 -0.0002282615023432299
  outer loop
    vertex 37.10085678100586 26.90704345703125 3.967246770858765
    vertex 37.21064376831055 27.17262268066406 4.52740478515625
    vertex 37.10085678100586 26.90670776367188 4.527246475219727
  endloop
endfacet
facet normal 0.9243196845054626 -0.38161900639534 -0.0002282615023432299
  outer loop
    vertex 37.21064376831055 27.17262268066406 4.52740478515625
    vertex 37.10085678100586 26.90704345703125 3.967246770858765
    vertex 37.21064376831055 27.17295837402344 3.967404842376709
  endloop
endfacet
facet normal -0.5025982856750488 -0.8645198941230774 -0.0005192829994484782
  outer loop
    vertex 37.10085678100586 26.90670776367188 4.527246475219727
    vertex 32.27083969116211 29.71502685546875 3.96892523765564
    vertex 37.10085678100586 26.90704345703125 3.967246770858765
  endloop
endfacet
facet normal -0.5025982856750488 -0.8645198941230774 -0.0005192829994484782
  outer loop
    vertex 32.27083969116211 29.71502685546875 3.96892523765564
    vertex 37.10085678100586 26.90670776367188 4.527246475219727
    vertex 32.27083969116211 29.71469116210938 4.528924942016602
  endloop
endfacet
facet normal -0.5038437843322754 -0.8637946248054504 -0.0005188487702980638
  outer loop
    vertex 32.27083969116211 29.71469116210938 4.528924942016602
    vertex 32.03084945678711 29.85501098632812 3.969009160995483
    vertex 32.27083969116211 29.71502685546875 3.96892523765564
  endloop
endfacet
facet normal -0.5038437843322754 -0.8637946248054504 -0.0005188487702980638
  outer loop
    vertex 32.03084945678711 29.85501098632812 3.969009160995483
    vertex 32.27083969116211 29.71469116210938 4.528924942016602
    vertex 32.03084945678711 29.85467529296875 4.529008865356445
  endloop
endfacet
facet normal -0.5031061172485352 -0.8642244935035706 -0.0005191061645746231
  outer loop
    vertex 32.03084945678711 29.85467529296875 4.529008865356445
    vertex 31.76281547546387 30.01104736328125 3.969100713729858
    vertex 32.03084945678711 29.85501098632812 3.969009160995483
  endloop
endfacet
facet normal -0.5031061172485352 -0.8642244935035706 -0.0005191061645746231
  outer loop
    vertex 31.76281547546387 30.01104736328125 3.969100713729858
    vertex 32.03084945678711 29.85467529296875 4.529008865356445
    vertex 31.76281356811523 30.01071166992188 4.52910041809082
  endloop
endfacet
facet normal -0.5010880827903748 -0.8653961420059204 -0.0005198076250962913
  outer loop
    vertex 31.76281356811523 30.01071166992188 4.52910041809082
    vertex 31.42086601257324 30.20904541015625 3.969222784042358
    vertex 31.76281547546387 30.01104736328125 3.969100713729858
  endloop
endfacet
facet normal -0.5010880827903748 -0.8653961420059204 -0.0005198076250962913
  outer loop
    vertex 31.42086601257324 30.20904541015625 3.969222784042358
    vertex 31.76281356811523 30.01071166992188 4.52910041809082
    vertex 31.42086410522461 30.20870971679688 4.52922248840332
  endloop
endfacet
facet normal -0.502764880657196 -0.8644230365753174 -0.0005192250246182084
  outer loop
    vertex 31.42086410522461 30.20870971679688 4.52922248840332
    vertex 28.49322509765625 31.91181564331055 3.970241069793701
    vertex 31.42086601257324 30.20904541015625 3.969222784042358
  endloop
endfacet
facet normal -0.502764880657196 -0.8644230365753174 -0.0005192250246182084
  outer loop
    vertex 28.49322509765625 31.91181564331055 3.970241069793701
    vertex 31.42086410522461 30.20870971679688 4.52922248840332
    vertex 28.49322509765625 31.91147994995117 4.530241012573242
  endloop
endfacet
facet normal -0.7906427383422852 0.6122776865959167 0.0003668087010737509
  outer loop
    vertex 28.66978454589844 32.13947296142578 4.530379295349121
    vertex 28.49322509765625 31.91181564331055 3.970241069793701
    vertex 28.49322509765625 31.91147994995117 4.530241012573242
  endloop
endfacet
facet normal -0.7906427383422852 0.6122776865959167 0.0003668087010737509
  outer loop
    vertex 28.49322509765625 31.91181564331055 3.970241069793701
    vertex 28.66978454589844 32.13947296142578 4.530379295349121
    vertex 28.66978454589844 32.13980865478516 3.97037935256958
  endloop
endfacet
facet normal -0.7534501552581787 0.6575049161911011 0.0003939841117244214
  outer loop
    vertex 28.8624210357666 32.36022186279297 4.530511379241943
    vertex 28.66978454589844 32.13980865478516 3.97037935256958
    vertex 28.66978454589844 32.13947296142578 4.530379295349121
  endloop
endfacet
facet normal -0.7534501552581787 0.6575049161911011 0.0003939841117244214
  outer loop
    vertex 28.66978454589844 32.13980865478516 3.97037935256958
    vertex 28.8624210357666 32.36022186279297 4.530511379241943
    vertex 28.8624210357666 32.36055755615234 3.970511674880981
  endloop
endfacet
facet normal -0.7138315439224243 0.7003173232078552 0.0004197121597826481
  outer loop
    vertex 29.06709289550781 32.56884384155273 4.530636310577393
    vertex 28.8624210357666 32.36055755615234 3.970511674880981
    vertex 28.8624210357666 32.36022186279297 4.530511379241943
  endloop
endfacet
facet normal -0.7138315439224243 0.7003173232078552 0.0004197121597826481
  outer loop
    vertex 28.8624210357666 32.36055755615234 3.970511674880981
    vertex 29.06709289550781 32.56884384155273 4.530636310577393
    vertex 29.06709289550781 32.56917953491211 3.970636606216431
  endloop
endfacet
endsolid B8A9
