  0
SECTION
  2
HEADER
  9
$ACADVER
  1
AC1009
  9
$DWGCODEPAGE
  3
ansi_1252
  9
$INSBASE
 10
0.0
 20
0.0
 30
0.0
  9
$EXTMIN
 10
1.000000000000000E+20
 20
1.000000000000000E+20
 30
1.000000000000000E+20
  9
$EXTMAX
 10
-1.000000000000000E+20
 20
-1.000000000000000E+20
 30
-1.000000000000000E+20
  9
$LIMMIN
 10
0.0
 20
0.0
  9
$LIMMAX
 10
12.0
 20
9.0
  9
$ORTHOMODE
 70
     0
  9
$REGENMODE
 70
     1
  9
$FILLMODE
 70
     1
  9
$QTEXTMODE
 70
     0
  9
$MIRRTEXT
 70
     1
  9
$DRAGMODE
 70
     2
  9
$LTSCALE
 40
1.0
  9
$OSMODE
 70
    37
  9
$ATTMODE
 70
     1
  9
$TEXTSIZE
 40
0.2
  9
$TRACEWID
 40
0.05
  9
$TEXTSTYLE
  7
STANDARD
  9
$CLAYER
  8
0
  9
$CELTYPE
  6
BYLAYER
  9
$CECOLOR
 62
   256
  9
$DIMSCALE
 40
1.0
  9
$DIMASZ
 40
0.18
  9
$DIMEXO
 40
0.0625
  9
$DIMDLI
 40
0.38
  9
$DIMRND
 40
0.0
  9
$DIMDLE
 40
0.0
  9
$DIMEXE
 40
0.18
  9
$DIMTP
 40
0.0
  9
$DIMTM
 40
0.0
  9
$DIMTXT
 40
0.18
  9
$DIMCEN
 40
0.09
  9
$DIMTSZ
 40
0.0
  9
$DIMTOL
 70
     0
  9
$DIMLIM
 70
     0
  9
$DIMTIH
 70
     1
  9
$DIMTOH
 70
     1
  9
$DIMSE1
 70
     0
  9
$DIMSE2
 70
     0
  9
$DIMTAD
 70
     0
  9
$DIMZIN
 70
     0
  9
$DIMBLK
  1

  9
$DIMASO
 70
     1
  9
$DIMSHO
 70
     1
  9
$DIMPOST
  1

  9
$DIMAPOST
  1

  9
$DIMALT
 70
     0
  9
$DIMALTD
 70
     2
  9
$DIMALTF
 40
25.4
  9
$DIMLFAC
 40
1.0
  9
$DIMTOFL
 70
     0
  9
$DIMTVP
 40
0.0
  9
$DIMTIX
 70
     0
  9
$DIMSOXD
 70
     0
  9
$DIMSAH
 70
     0
  9
$DIMBLK1
  1

  9
$DIMBLK2
  1

  9
$DIMSTYLE
  2
STANDARD
  9
$DIMCLRD
 70
     0
  9
$DIMCLRE
 70
     0
  9
$DIMCLRT
 70
     0
  9
$DIMTFAC
 40
1.0
  9
$DIMGAP
 40
0.09
  9
$LUNITS
 70
     2
  9
$LUPREC
 70
     4
  9
$SKETCHINC
 40
0.1
  9
$FILLETRAD
 40
0.0
  9
$AUNITS
 70
     0
  9
$AUPREC
 70
     0
  9
$MENU
  1
.
  9
$ELEVATION
 40
0.0
  9
$PELEVATION
 40
0.0
  9
$THICKNESS
 40
0.0
  9
$LIMCHECK
 70
     0
  9
$CHAMFERA
 40
0.0
  9
$CHAMFERB
 40
0.0
  9
$SKPOLY
 70
     0
  9
$TDCREATE
 40
2460422.588945475
  9
$TDUPDATE
 40
2460422.588945613
  9
$TDINDWG
 40
0.0000000116
  9
$TDUSRTIMER
 40
0.0000000116
  9
$USRTIMER
 70
     1
  9
$ANGBASE
 50
0.0
  9
$ANGDIR
 70
     0
  9
$PDMODE
 70
     0
  9
$PDSIZE
 40
0.0
  9
$PLINEWID
 40
0.0
  9
$COORDS
 70
     1
  9
$SPLFRAME
 70
     0
  9
$SPLINETYPE
 70
     6
  9
$SPLINESEGS
 70
     8
  9
$ATTDIA
 70
     0
  9
$ATTREQ
 70
     1
  9
$HANDLING
 70
     1
  9
$HANDSEED
  5
17E
  9
$SURFTAB1
 70
     6
  9
$SURFTAB2
 70
     6
  9
$SURFTYPE
 70
     6
  9
$SURFU
 70
     6
  9
$SURFV
 70
     6
  9
$UCSNAME
  2

  9
$UCSORG
 10
0.0
 20
0.0
 30
0.0
  9
$UCSXDIR
 10
1.0
 20
0.0
 30
0.0
  9
$UCSYDIR
 10
0.0
 20
1.0
 30
0.0
  9
$PUCSNAME
  2

  9
$PUCSORG
 10
0.0
 20
0.0
 30
0.0
  9
$PUCSXDIR
 10
1.0
 20
0.0
 30
0.0
  9
$PUCSYDIR
 10
0.0
 20
1.0
 30
0.0
  9
$USERI1
 70
     0
  9
$USERI2
 70
     0
  9
$USERI3
 70
     0
  9
$USERI4
 70
     0
  9
$USERI5
 70
     0
  9
$USERR1
 40
0.0
  9
$USERR2
 40
0.0
  9
$USERR3
 40
0.0
  9
$USERR4
 40
0.0
  9
$USERR5
 40
0.0
  9
$WORLDVIEW
 70
     1
  9
$SHADEDGE
 70
     3
  9
$SHADEDIF
 70
    70
  9
$TILEMODE
 70
     1
  9
$MAXACTVP
 70
    64
  9
$PLIMCHECK
 70
     0
  9
$PEXTMIN
 10
1.000000000000000E+20
 20
1.000000000000000E+20
 30
1.000000000000000E+20
  9
$PEXTMAX
 10
-1.000000000000000E+20
 20
-1.000000000000000E+20
 30
-1.000000000000000E+20
  9
$PLIMMIN
 10
0.0
 20
0.0
  9
$PLIMMAX
 10
12.0
 20
9.0
  9
$UNITMODE
 70
     0
  9
$VISRETAIN
 70
     1
  9
$PLINEGEN
 70
     0
  9
$PSLTSCALE
 70
     1
  0
ENDSEC
  0
SECTION
  2
TABLES
  0
TABLE
  2
VPORT
 70
     1
  0
VPORT
  2
*ACTIVE
 70
     0
 10
0.0
 20
0.0
 11
1.0
 21
1.0
 12
0.0
 22
0.0
 13
0.0
 23
0.0
 14
0.5
 24
0.5
 15
0.5
 25
0.5
 16
0.0
 26
0.0
 36
1.0
 17
0.0
 27
0.0
 37
-1000.0
 40
62.52933577605857
 41
1.993541442411195
 42
50.0
 43
301.1987087231656
 44
337.1407495622086
 50
0.0
 51
0.0
 71
     0
 72
   100
 73
     1
 74
     3
 75
     0
 76
     0
 77
     0
 78
     0
  0
ENDTAB
  0
TABLE
  2
LTYPE
 70
     1
  0
LTYPE
  2
CONTINUOUS
 70
     0
  3
Solid line
 72
    65
 73
     0
 40
0.0
  0
ENDTAB
  0
TABLE
  2
LAYER
 70
     3
  0
LAYER
  2
0
 70
     0
 62
     7
  6
CONTINUOUS
  0
LAYER
  2
PROFILEEDGES
 70
     0
 62
     7
  6
CONTINUOUS
  0
LAYER
  2
SECTIONCUTEDGES
 70
     0
 62
     7
  6
CONTINUOUS
  0
ENDTAB
  0
TABLE
  2
STYLE
 70
     1
  0
STYLE
  2
STANDARD
 70
     0
 40
0.0
 41
1.0
 50
0.0
 71
     0
 42
0.2
  3
txt
  4

  0
ENDTAB
  0
TABLE
  2
VIEW
 70
     0
  0
ENDTAB
  0
TABLE
  2
UCS
 70
     0
  0
ENDTAB
  0
TABLE
  2
APPID
 70
     1
  0
APPID
  2
ACAD
 70
     0
  0
ENDTAB
  0
TABLE
  2
DIMSTYLE
 70
     1
  0
DIMSTYLE
  2
STANDARD
 70
     0
  3

  4

  5

  6

  7

 40
1.0
 41
0.18
 42
0.0625
 43
0.38
 44
0.18
 45
0.0
 46
0.0
 47
0.0
 48
0.0
140
0.18
141
0.09
142
0.0
143
25.4
144
1.0
145
0.0
146
1.0
147
0.09
 71
     0
 72
     0
 73
     1
 74
     1
 75
     0
 76
     0
 77
     0
 78
     0
170
     0
171
     2
172
     0
173
     0
174
     0
175
     0
176
     0
177
     0
178
     0
  0
ENDTAB
  0
ENDSEC
  0
SECTION
  2
BLOCKS
  0
BLOCK
  8
0
  2
$MODEL_SPACE
 70
     0
 10
0.0
 20
0.0
 30
0.0
  3
$MODEL_SPACE
  1

  0
ENDBLK
  5
21
  8
0
  0
BLOCK
 67
     1
  8
0
  2
$PAPER_SPACE
 70
     0
 10
0.0
 20
0.0
 30
0.0
  3
$PAPER_SPACE
  1

  0
ENDBLK
  5
1D
 67
     1
  8
0
  0
ENDSEC
  0
SECTION
  2
ENTITIES
  0
LINE
  5
60
  8
0
 10
18.08932992230048
 20
6.340315359333185
 30
0.0
 11
18.12815713854138
 21
4.350042806678298
 31
0.0
  0
LINE
  5
61
  8
0
 10
18.6530887610964
 20
-1.036674637826356
 30
0.0
 11
18.92588251312434
 21
-2.487953571732013
 31
0.0
  0
LINE
  5
62
  8
0
 10
19.49311089991904
 20
17.46635152677414
 30
0.0
 11
19.20879931007188
 21
16.42127857087458
 31
0.0
  0
LINE
  5
63
  8
0
 10
18.41924190566791
 20
0.610339870793071
 30
0.0
 11
18.6530887610964
 21
-1.036674637826356
 31
0.0
  0
LINE
  5
64
  8
0
 10
19.91971054884427
 20
19.15284786523037
 30
0.0
 11
19.7414820021191
 21
18.35241336551277
 31
0.0
  0
LINE
  5
65
  8
0
 10
-19.91622363688793
 20
19.15284786523037
 30
0.0
 11
-19.73799509016277
 21
18.35241336551277
 31
0.0
  0
LINE
  5
66
  8
0
 10
19.85831271343435
 20
-6.982104128808052
 30
0.0
 11
19.83473748811985
 21
-6.754523002779508
 31
0.0
  0
LINE
  5
67
  8
0
 10
10.70871946760817
 20
24.00567228756427
 30
0.0
 11
10.86763809020704
 21
24.21277906875184
 31
0.0
  0
LINE
  5
68
  8
0
 10
19.21693871316011
 20
-3.73118283555653
 30
0.0
 11
19.5009744690414
 21
-4.778299114797164
 31
0.0
  0
LINE
  5
69
  8
0
 10
-19.62126408276168
 20
-5.129967547331337
 30
0.0
 11
-19.65909541948468
 21
-5.313972328297614
 31
0.0
  0
LINE
  5
6A
  8
0
 10
-19.98555825114376
 20
19.97957256384977
 30
0.0
 11
-19.91622363688793
 21
19.15284786523037
 31
0.0
  0
LINE
  5
6B
  8
0
 10
-18.41043637251796
 20
12.07474043450571
 30
0.0
 11
-18.23326504210419
 21
10.2614251224744
 31
0.0
  0
LINE
  5
6C
  8
0
 10
19.65586384378555
 20
-5.503424152396668
 30
0.0
 11
19.61981452098861
 21
-5.313972328297614
 31
0.0
  0
LINE
  5
6D
  8
0
 10
19.54236983361651
 20
-4.951409809497839
 30
0.0
 11
19.58198318426561
 21
-5.129967547331337
 31
0.0
  0
LINE
  5
6E
  8
0
 10
18.64639371549988
 20
13.72425551364742
 30
0.0
 11
18.41392328447435
 21
12.07474043450571
 31
0.0
  0
LINE
  5
6F
  8
0
 10
19.9001171222851
 20
-7.453607510263519
 30
0.0
 11
19.8801059248227
 21
-7.215132297969374
 31
0.0
  0
LINE
  5
70
  8
0
 10
-18.08584301034414
 20
6.340315359333185
 30
0.0
 11
-18.12467022658504
 21
4.350042806678298
 31
0.0
  0
LINE
  5
71
  8
0
 10
-18.12279164075622
 20
8.331150897580118
 30
0.0
 11
-18.08584301034414
 21
6.340315359333185
 31
0.0
  0
LINE
  5
72
  8
0
 10
-19.2053123981155
 20
16.42127857087458
 30
0.0
 11
-18.91470929971354
 21
15.17751489940677
 31
0.0
  0
LINE
  5
73
  8
0
 10
19.7414820021191
 20
18.35241336551277
 30
0.0
 11
19.49311089991904
 21
17.46635152677414
 31
0.0
  0
LINE
  5
74
  8
0
 10
-19.48962398796274
 20
17.46635152677414
 30
0.0
 11
-19.2053123981155
 21
16.42127857087458
 31
0.0
  0
LINE
  5
75
  8
0
 10
19.91834630582138
 20
-7.697529765690398
 30
0.0
 11
19.9001171222851
 21
-7.453607510263519
 31
0.0
  0
LINE
  5
76
  8
0
 10
19.20879931007188
 20
16.42127857087458
 30
0.0
 11
18.91819621166992
 21
15.17751489940677
 31
0.0
  0
LINE
  5
77
  8
0
 10
19.5009744690414
 20
-4.778299114797164
 30
0.0
 11
19.54236983361651
 21
-4.951409809497839
 31
0.0
  0
LINE
  5
78
  8
0
 10
-18.64960184914006
 20
-1.036674637826356
 30
0.0
 11
-18.92239560116796
 21
-2.487953571732013
 31
0.0
  0
LINE
  5
79
  8
0
 10
18.24043173142967
 20
2.42135465794396
 30
0.0
 11
18.41924190566791
 21
0.610339870793071
 31
0.0
  0
LINE
  5
7A
  8
0
 10
-18.92239560116796
 20
-2.487953571732013
 30
0.0
 11
-19.21345180120372
 21
-3.73118283555653
 31
0.0
  0
LINE
  5
7B
  8
0
 10
18.12627855271251
 20
8.331150897580118
 30
0.0
 11
18.08932992230048
 21
6.340315359333185
 31
0.0
  0
LINE
  5
7C
  8
0
 10
18.12815713854138
 20
4.350042806678298
 30
0.0
 11
18.24043173142967
 21
2.42135465794396
 31
0.0
  0
LINE
  5
7D
  8
0
 10
18.91819621166992
 20
15.17751489940677
 30
0.0
 11
18.64639371549988
 21
13.72425551364742
 31
0.0
  0
LINE
  5
7E
  8
0
 10
19.83473748811985
 20
-6.754523002779508
 30
0.0
 11
19.80938024887929
 21
-6.532388919883741
 31
0.0
  0
LINE
  5
7F
  8
0
 10
18.23675195406048
 20
10.2614251224744
 30
0.0
 11
18.12627855271251
 21
8.331150897580118
 31
0.0
  0
LINE
  5
80
  8
0
 10
18.41392328447435
 20
12.07474043450571
 30
0.0
 11
18.23675195406048
 21
10.2614251224744
 31
0.0
  0
LINE
  5
81
  8
0
 10
-18.23326504210419
 20
10.2614251224744
 30
0.0
 11
-18.12279164075622
 21
8.331150897580118
 31
0.0
  0
LINE
  5
82
  8
0
 10
-18.64290680354354
 20
13.72425551364742
 30
0.0
 11
-18.41043637251796
 21
12.07474043450571
 31
0.0
  0
LINE
  5
83
  8
0
 10
12.83493649053891
 20
-25.95143449362781
 30
0.0
 11
12.69030116872179
 21
-25.65814307454054
 31
0.0
  0
LINE
  5
84
  8
0
 10
19.94945863111575
 20
-8.201715405942556
 30
0.0
 11
19.96234177287382
 21
-8.461978790767835
 31
0.0
  0
LINE
  5
85
  8
0
 10
14.35295238724368
 20
-27.11624905935047
 30
0.0
 11
14.04329141908726
 21
-27.01113332490603
 31
0.0
  0
LINE
  5
86
  8
0
 10
-18.23694481947338
 20
2.42135465794396
 30
0.0
 11
-18.41575499371157
 21
0.610339870793071
 31
0.0
  0
LINE
  5
87
  8
0
 10
-18.91470929971354
 20
15.17751489940677
 30
0.0
 11
-18.64290680354354
 21
13.72425551364742
 31
0.0
  0
LINE
  5
88
  8
0
 10
12.52138784656546
 20
-25.02774997417794
 30
0.0
 11
12.5
 21
-24.70143449362783
 31
0.0
  0
LINE
  5
89
  8
0
 10
19.93479347543157
 20
-7.946899064250099
 30
0.0
 11
19.91834630582138
 21
-7.697529765690398
 31
0.0
  0
LINE
  5
8A
  8
0
 10
19.96234177287382
 20
-8.461978790767835
 30
0.0
 11
19.97344290070584
 21
-8.727689218725848
 31
0.0
  0
LINE
  5
8B
  8
0
 10
17.49999999999999
 20
-24.70143449362783
 30
0.0
 11
17.41481456572266
 21
-25.34848210638412
 31
0.0
  0
LINE
  5
8C
  8
0
 10
14.35295238724368
 20
-22.28661992790514
 30
0.0
 11
15.00000000000002
 21
-22.20143449362781
 31
0.0
  0
LINE
  5
8D
  8
0
 10
19.97344290070584
 20
-8.727689218725848
 30
0.0
 11
19.9827620146118
 21
-8.998846689816705
 31
0.0
  0
LINE
  5
8E
  8
0
 10
13.75000000000003
 20
-22.53637098416672
 30
0.0
 11
14.35295238724368
 21
-22.28661992790514
 31
0.0
  0
LINE
  5
8F
  8
0
 10
19.8801059248227
 20
-7.215132297969374
 30
0.0
 11
19.85831271343435
 21
-6.982104128808052
 31
0.0
  0
LINE
  5
90
  8
0
 10
-18.41575499371157
 20
0.610339870793071
 30
0.0
 11
-18.64960184914006
 21
-1.036674637826356
 31
0.0
  0
LINE
  5
91
  8
0
 10
18.92588251312434
 20
-2.487953571732013
 30
0.0
 11
19.21693871316011
 21
-3.73118283555653
 31
0.0
  0
LINE
  5
92
  8
0
 10
-18.12467022658504
 20
4.350042806678298
 30
0.0
 11
-18.23694481947338
 21
2.42135465794396
 31
0.0
  0
LINE
  5
93
  8
0
 10
19.61981452098861
 20
-5.313972328297614
 30
0.0
 11
19.58198318426561
 21
-5.129967547331337
 31
0.0
  0
LINE
  5
94
  8
0
 10
-19.49748755708505
 20
-4.778299114797164
 30
0.0
 11
-19.62126408276168
 21
-5.129967547331337
 31
0.0
  0
LINE
  5
95
  8
0
 10
17.16506350946108
 20
-25.95143449362781
 30
0.0
 11
16.76776695296637
 21
-26.46920144659418
 31
0.0
  0
LINE
  5
96
  8
0
 10
19.94945863111575
 20
-8.201715405942556
 30
0.0
 11
19.93479347543157
 21
-7.946899064250099
 31
0.0
  0
LINE
  5
97
  8
0
 10
16.25
 20
-22.53637098416672
 30
0.0
 11
16.76776695296637
 21
-22.93366754066145
 31
0.0
  0
LINE
  5
98
  8
0
 10
16.76776695296637
 20
-26.46920144659418
 30
0.0
 11
16.25
 21
-26.86649800308891
 31
0.0
  0
LINE
  5
99
  8
0
 10
14.67368451944986
 20
-27.18004664706234
 30
0.0
 11
14.35295238724368
 21
-27.11624905935047
 31
0.0
  0
LINE
  5
9A
  8
0
 10
15.64704761275631
 20
-22.28661992790514
 30
0.0
 11
16.25
 21
-22.53637098416672
 31
0.0
  0
LINE
  5
9B
  8
0
 10
19.78224099571267
 20
-6.315701880120753
 30
0.0
 11
19.75331972862
 21
-6.104461883490565
 31
0.0
  0
LINE
  5
9C
  8
0
 10
-19.73799509016277
 20
18.35241336551277
 30
0.0
 11
-19.48962398796274
 21
17.46635152677414
 31
0.0
  0
LINE
  5
9D
  8
0
 10
-19.21345180120372
 20
-3.73118283555653
 30
0.0
 11
-19.49748755708505
 21
-4.778299114797164
 31
0.0
  0
LINE
  5
9E
  8
0
 10
19.98904516310014
 20
19.97957256384977
 30
0.0
 11
19.91971054884427
 21
19.15284786523037
 31
0.0
  0
LINE
  5
9F
  8
0
 10
-18.17314043745063
 20
25.47064389204345
 30
0.0
 11
-18.43240557540627
 21
25.72156045634839
 31
0.0
  0
LINE
  5
A0
  8
0
 10
13.23223304703362
 20
-26.46920144659418
 30
0.0
 11
13.01661664927194
 21
-26.22333806614963
 31
0.0
  0
LINE
  5
A1
  8
0
 10
12.83493649053891
 20
-23.45143449362784
 30
0.0
 11
13.23223304703362
 21
-22.93366754066145
 31
0.0
  0
LINE
  5
A2
  8
0
 10
19.80938024887929
 20
-6.532388919883741
 30
0.0
 11
19.78224099571267
 21
-6.315701880120753
 31
0.0
  0
LINE
  5
A3
  8
0
 10
-19.97407437392764
 20
-7.946899064250099
 30
0.0
 11
-19.95762720431745
 21
-7.697529765690398
 31
0.0
  0
LINE
  5
A4
  8
0
 10
10.5747448713917
 20
23.50567228755888
 30
0.0
 11
10.60881904510302
 21
23.76449133266142
 31
0.0
  0
LINE
  5
A5
  8
0
 10
19.72261644760122
 20
-5.898668929993154
 30
0.0
 11
19.69013115265644
 21
-5.698323019628499
 31
0.0
  0
LINE
  5
A6
  8
0
 10
11.31592582628899
 20
22.53974646126948
 30
0.0
 11
11.07474487139091
 21
22.63964688377418
 31
0.0
  0
LINE
  5
A7
  8
0
 10
17.41481456572266
 20
-24.05438688087152
 30
0.0
 11
17.49999999999999
 21
-24.70143449362783
 31
0.0
  0
LINE
  5
A8
  8
0
 10
12.58518543427733
 20
-24.05438688087154
 30
0.0
 11
12.83493649053891
 21
-23.45143449362784
 31
0.0
  0
LINE
  5
A9
  8
0
 10
19.9827620146118
 20
-8.998846689816705
 30
0.0
 11
19.9902991145917
 21
-9.275451204040317
 31
0.0
  0
LINE
  5
AA
  8
0
 10
13.75000000000003
 20
-26.86649800308891
 30
0.0
 11
13.47809642747822
 21
-26.6848178443559
 31
0.0
  0
LINE
  5
AB
  8
0
 10
10.70871946760758
 20
23.00567228755886
 30
0.0
 11
10.60881904510302
 21
23.24685324245639
 31
0.0
  0
LINE
  5
AC
  8
0
 10
16.76776695296637
 20
-22.93366754066145
 30
0.0
 11
17.16506350946108
 21
-23.45143449362782
 31
0.0
  0
LINE
  5
AD
  8
0
 10
12.58518543427733
 20
-25.34848210638412
 30
0.0
 11
12.52138784656546
 21
-25.02774997417794
 31
0.0
  0
LINE
  5
AE
  8
0
 10
13.01661664927194
 20
-26.22333806614963
 30
0.0
 11
12.83493649053891
 21
-25.95143449362781
 31
0.0
  0
LINE
  5
AF
  8
0
 10
12.5
 20
-24.70143449362783
 30
0.0
 11
12.58518543427733
 21
-24.05438688087154
 31
0.0
  0
LINE
  5
B0
  8
0
 10
16.29409522551264
 20
-29.53106362507315
 30
0.0
 11
16.91341716182548
 21
-29.32083215618424
 31
0.0
  0
LINE
  5
B1
  8
0
 10
-19.46731075808481
 20
25.77240208778336
 30
0.0
 11
-19.74992158763106
 21
25.54810618272753
 31
0.0
  0
LINE
  5
B2
  8
0
 10
-19.98873952961186
 20
-8.201715405942556
 30
0.0
 11
-19.97407437392764
 21
-7.946899064250099
 31
0.0
  0
LINE
  5
B3
  8
0
 10
-18.01887803003725
 20
25.1444834351197
 30
0.0
 11
-18.17314043745063
 21
25.47064389204345
 31
0.0
  0
LINE
  5
B4
  8
0
 10
-19.93541049466516
 20
25.23863663758758
 30
0.0
 11
-19.99999999999992
 21
24.88366377974866
 31
0.0
  0
LINE
  5
B5
  8
0
 10
10.27609245829143
 20
28.83149494191297
 30
0.0
 11
10.50051025631942
 21
28.76913130112785
 31
0.0
  0
LINE
  5
B6
  8
0
 10
18.04380714504362
 20
-28.66820119508398
 30
0.0
 11
18.53553390593276
 21
-28.23696839956055
 31
0.0
  0
LINE
  5
B7
  8
0
 10
18.53553390593276
 20
-28.23696839956055
 30
0.0
 11
18.96676670145622
 21
-27.74524163867143
 31
0.0
  0
LINE
  5
B8
  8
0
 10
-19.61603618702081
 20
-11.85447970042065
 30
0.0
 11
-19.44412750000048
 21
-11.8822582871874
 31
0.0
  0
LINE
  5
B9
  8
0
 10
17.41481456572266
 20
-25.34848210638412
 30
0.0
 11
17.16506350946108
 21
-25.95143449362781
 31
0.0
  0
LINE
  5
BA
  8
0
 10
16.79074433335276
 20
21.10804944400394
 30
0.0
 11
17.04956337845529
 21
21.14212361771481
 31
0.0
  0
LINE
  5
BB
  8
0
 10
11.96196840190013
 20
27.08308854390178
 30
0.0
 11
11.97415763415062
 21
26.68988783738579
 31
0.0
  0
LINE
  5
BC
  8
0
 10
-19.95722430686908
 20
-25.35406545472809
 30
0.0
 11
-19.82962913144534
 21
-25.99552971914041
 31
0.0
  0
LINE
  5
BD
  8
0
 10
17.6567697371376
 20
21.60804944400378
 30
0.0
 11
17.7566701596413
 21
21.84923039890122
 31
0.0
  0
LINE
  5
BE
  8
0
 10
13.23223304703362
 20
-22.93366754066145
 30
0.0
 11
13.75000000000003
 21
-22.53637098416672
 31
0.0
  0
LINE
  5
BF
  8
0
 10
-19.99999999999992
 20
24.88366377974866
 30
0.0
 11
-19.98555825114376
 21
19.97957256384977
 31
0.0
  0
LINE
  5
C0
  8
0
 10
19.69013115265644
 20
-5.698323019628499
 30
0.0
 11
19.65586384378555
 21
-5.503424152396668
 31
0.0
  0
LINE
  5
C1
  8
0
 10
19.75331972862
 20
-6.104461883490565
 30
0.0
 11
19.72261644760122
 21
-5.898668929993154
 31
0.0
  0
LINE
  5
C2
  8
0
 10
11.48537083773553
 20
28.14639055403386
 30
0.0
 11
11.71284419877562
 21
27.82543690784067
 31
0.0
  0
LINE
  5
C3
  8
0
 10
15.00000000000002
 20
-22.20143449362781
 30
0.0
 11
15.64704761275631
 21
-22.28661992790514
 31
0.0
  0
LINE
  5
C4
  8
0
 10
10.86763809020556
 20
22.79856550637211
 30
0.0
 11
10.70871946760758
 21
23.00567228755886
 31
0.0
  0
LINE
  5
C5
  8
0
 10
11.29190215891973
 20
24.53832833870449
 30
0.0
 11
11.45853280627391
 21
24.75548562622925
 31
0.0
  0
LINE
  5
C6
  8
0
 10
-18.76343872642143
 20
25.8650685987338
 30
0.0
 11
-19.12380536444183
 21
25.88277227642172
 31
0.0
  0
LINE
  5
C7
  8
0
 10
19.9902991145917
 20
-9.275451204040317
 30
0.0
 11
20.00000000000001
 21
-24.70143449362783
 31
0.0
  0
LINE
  5
C8
  8
0
 10
11.19996629504801
 20
28.41712957966716
 30
0.0
 11
11.48537083773553
 21
28.14639055403386
 31
0.0
  0
LINE
  5
C9
  8
0
 10
13.47809642747822
 20
-26.6848178443559
 30
0.0
 11
13.23223304703362
 21
-26.46920144659418
 31
0.0
  0
LINE
  5
CA
  8
0
 10
19.33012701892218
 20
-27.2014344936278
 30
0.0
 11
19.61939766255643
 21
-26.61485165545326
 31
0.0
  0
LINE
  5
CB
  8
0
 10
17.16506350946108
 20
-23.45143449362782
 30
0.0
 11
17.41481456572266
 21
-24.05438688087152
 31
0.0
  0
LINE
  5
CC
  8
0
 10
16.25
 20
-26.86649800308891
 30
0.0
 11
15.64704761275631
 21
-27.11624905935047
 31
0.0
  0
LINE
  5
CD
  8
0
 10
18.96676670145622
 20
-27.74524163867143
 30
0.0
 11
19.33012701892218
 21
-27.2014344936278
 31
0.0
  0
LINE
  5
CE
  8
0
 10
19.82962913144534
 20
-25.99552971914041
 30
0.0
 11
19.95722430686908
 21
-25.35406545472809
 31
0.0
  0
LINE
  5
CF
  8
0
 10
19.95722430686908
 20
-25.35406545472809
 30
0.0
 11
20.00000000000001
 21
-24.70143449362783
 31
0.0
  0
LINE
  5
D0
  8
0
 10
-18.43240557540627
 20
25.72156045634839
 30
0.0
 11
-18.76343872642143
 21
25.8650685987338
 31
0.0
  0
LINE
  5
D1
  8
0
 10
15.00000000000002
 20
-27.2014344936278
 30
0.0
 11
14.67368451944986
 21
-27.18004664706234
 31
0.0
  0
LINE
  5
D2
  8
0
 10
-19.33012701892218
 20
-27.2014344936278
 30
0.0
 11
-18.96676670145622
 21
-27.74524163867143
 31
0.0
  0
LINE
  5
D3
  8
0
 10
15.64704761275631
 20
-27.11624905935047
 30
0.0
 11
15.00000000000002
 21
-27.2014344936278
 31
0.0
  0
LINE
  5
D4
  8
0
 10
14.04329141908726
 20
-27.01113332490603
 30
0.0
 11
13.75000000000003
 21
-26.86649800308891
 31
0.0
  0
LINE
  5
D5
  8
0
 10
12.69030116872179
 20
-25.65814307454054
 30
0.0
 11
12.58518543427733
 21
-25.34848210638412
 31
0.0
  0
LINE
  5
D6
  8
0
 10
-19.97281844139582
 20
-11.49645655307728
 30
0.0
 11
-19.89392283317479
 21
-11.65169742900643
 31
0.0
  0
LINE
  5
D7
  8
0
 10
-18.91553764417929
 20
-19.2033379719383
 30
0.0
 11
-18.99467902873301
 21
-19.35744586420464
 31
0.0
  0
LINE
  5
D8
  8
0
 10
18.43240557540654
 20
25.72156045634839
 30
0.0
 11
18.76343872642143
 21
25.8650685987338
 31
0.0
  0
LINE
  5
D9
  8
0
 10
-19.27276771442606
 20
-19.5567940947648
 30
0.0
 11
-19.44412750000048
 21
-19.58225828718741
 31
0.0
  0
LINE
  5
DA
  8
0
 10
11.56328121021033
 20
25.00837064364934
 30
0.0
 11
11.90985181218853
 21
26.30178973864097
 31
0.0
  0
LINE
  5
DB
  8
0
 10
10.60881904510302
 20
23.76449133266142
 30
0.0
 11
10.70871946760817
 21
24.00567228756427
 31
0.0
  0
LINE
  5
DC
  8
0
 10
18.76343872642143
 20
25.8650685987338
 30
0.0
 11
19.12380536444174
 21
25.88277227642172
 31
0.0
  0
LINE
  5
DD
  8
0
 10
-20.00000000000001
 20
-11.32445245595265
 30
0.0
 11
-19.97281844139582
 21
-11.49645655307728
 31
0.0
  0
LINE
  5
DE
  8
0
 10
-16.91341716182548
 20
-29.32083215618424
 30
0.0
 11
-16.29409522551264
 21
-29.53106362507315
 31
0.0
  0
LINE
  5
DF
  8
0
 10
-18.53553390593276
 20
-28.23696839956055
 30
0.0
 11
-18.04380714504362
 21
-28.66820119508398
 31
0.0
  0
LINE
  5
E0
  8
0
 10
15.00000000000002
 20
-29.70143449362782
 30
0.0
 11
-15.00000000000002
 21
-29.70143449362782
 31
0.0
  0
LINE
  5
E1
  8
0
 10
10.50051025631942
 20
28.76913130112785
 30
0.0
 11
10.86747008928994
 21
28.62737145500141
 31
0.0
  0
LINE
  5
E2
  8
0
 10
17.7566701596413
 20
21.84923039890122
 30
0.0
 11
17.79401833670626
 21
22.11231620824793
 31
0.0
  0
LINE
  5
E3
  8
0
 10
-18.04380714504362
 20
-28.66820119508398
 30
0.0
 11
-17.50000000000004
 21
-29.03156151255
 31
0.0
  0
LINE
  5
E4
  8
0
 10
16.53192528825022
 20
21.1421236177149
 30
0.0
 11
16.79074433335276
 21
21.10804944400394
 31
0.0
  0
LINE
  5
E5
  8
0
 10
-19.61939766255643
 20
-26.61485165545326
 30
0.0
 11
-19.33012701892218
 21
-27.2014344936278
 31
0.0
  0
LINE
  5
E6
  8
0
 10
-18.99467902873301
 20
-19.35744586420464
 30
0.0
 11
-19.11782801015811
 21
-19.47929384154455
 31
0.0
  0
LINE
  5
E7
  8
0
 10
-19.11782801015811
 20
-19.47929384154455
 30
0.0
 11
-19.27276771442606
 21
-19.5567940947648
 31
0.0
  0
LINE
  5
E8
  8
0
 10
-19.77100220457567
 20
-19.68947099734574
 30
0.0
 11
-19.61603618702081
 21
-19.6100368739541
 31
0.0
  0
LINE
  5
E9
  8
0
 10
10.86747008928994
 20
28.62737145500141
 30
0.0
 11
11.19996629504801
 21
28.41712957966716
 31
0.0
  0
LINE
  5
EA
  8
0
 10
-18.88825500000095
 20
-19.0322582871874
 30
0.0
 11
-18.91553764417929
 21
-19.2033379719383
 31
0.0
  0
LINE
  5
EB
  8
0
 10
11.71284419877562
 20
27.82543690784067
 30
0.0
 11
11.8737470562444
 21
27.46645829643614
 31
0.0
  0
LINE
  5
EC
  8
0
 10
-19.82962913144534
 20
-25.99552971914041
 30
0.0
 11
-19.61939766255643
 21
-26.61485165545326
 31
0.0
  0
LINE
  5
ED
  8
0
 10
11.97415763415062
 20
26.68988783738579
 30
0.0
 11
11.90985181218853
 21
26.30178973864097
 31
0.0
  0
LINE
  5
EE
  8
0
 10
11.45853280627391
 20
24.75548562622925
 30
0.0
 11
11.56328121021033
 21
25.00837064364934
 31
0.0
  0
LINE
  5
EF
  8
0
 10
11.8737470562444
 20
27.46645829643614
 30
0.0
 11
11.96196840190013
 21
27.08308854390178
 31
0.0
  0
LINE
  5
F0
  8
0
 10
-20.00000000000001
 20
-24.70143449362783
 30
0.0
 11
-19.95722430686908
 21
-25.35406545472809
 31
0.0
  0
LINE
  5
F1
  8
0
 10
15.00000000000002
 20
-29.70143449362782
 30
0.0
 11
15.65263096110028
 21
-29.65865880049687
 31
0.0
  0
LINE
  5
F2
  8
0
 10
-18.96676670145622
 20
-27.74524163867143
 30
0.0
 11
-18.53553390593276
 21
-28.23696839956055
 31
0.0
  0
LINE
  5
F3
  8
0
 10
-19.89392283317479
 20
-11.65169742900643
 30
0.0
 11
-19.77100220457567
 21
-11.77504557702903
 31
0.0
  0
LINE
  5
F4
  8
0
 10
17.29074433335165
 20
21.24202404021941
 30
0.0
 11
17.49785111453877
 21
21.40094266281725
 31
0.0
  0
LINE
  5
F5
  8
0
 10
19.93541049466493
 20
25.23863663758758
 30
0.0
 11
20.00000000000001
 21
24.88366377974866
 31
0.0
  0
LINE
  5
F6
  8
0
 10
19.61939766255643
 20
-26.61485165545326
 30
0.0
 11
19.82962913144534
 21
-25.99552971914041
 31
0.0
  0
LINE
  5
F7
  8
0
 10
17.50000000000004
 20
-29.03156151255
 30
0.0
 11
18.04380714504362
 21
-28.66820119508398
 31
0.0
  0
LINE
  5
F8
  8
0
 10
16.91341716182548
 20
-29.32083215618424
 30
0.0
 11
17.50000000000004
 21
-29.03156151255
 31
0.0
  0
LINE
  5
F9
  8
0
 10
-20.00000000000001
 20
-24.70143449362783
 30
0.0
 11
-20.00000000000001
 21
-20.14006411842217
 31
0.0
  0
LINE
  5
FA
  8
0
 10
-15.65263096110028
 20
-29.65865880049687
 30
0.0
 11
-15.00000000000002
 21
-29.70143449362782
 31
0.0
  0
LINE
  5
FB
  8
0
 10
15.65263096110028
 20
-29.65865880049687
 30
0.0
 11
16.29409522551264
 21
-29.53106362507315
 31
0.0
  0
LINE
  5
FC
  8
0
 10
18.1731404374509
 20
25.47064389204345
 30
0.0
 11
18.43240557540654
 21
25.72156045634839
 31
0.0
  0
LINE
  5
FD
  8
0
 10
-17.50000000000004
 20
-29.03156151255
 30
0.0
 11
-16.91341716182548
 21
-29.32083215618424
 31
0.0
  0
LINE
  5
FE
  8
0
 10
-19.77100220457567
 20
-11.77504557702903
 30
0.0
 11
-19.61603618702081
 21
-11.85447970042065
 31
0.0
  0
LINE
  5
FF
  8
0
 10
17.79401833670626
 20
22.11231620824793
 30
0.0
 11
17.75994416299508
 21
22.37253922926262
 31
0.0
  0
LINE
  5
100
  8
0
 10
6.885143014609218
 20
29.49633915191769
 30
0.0
 11
10.27609245829143
 21
28.83149494191297
 31
0.0
  0
LINE
  5
101
  8
0
 10
-16.29409522551264
 20
-29.53106362507315
 30
0.0
 11
-15.65263096110028
 21
-29.65865880049687
 31
0.0
  0
LINE
  5
102
  8
0
 10
4.056536019069045
 20
29.47750422130229
 30
0.0
 11
3.741962010799233
 21
29.25830010311947
 31
0.0
  0
LINE
  5
103
  8
0
 10
3.099999999999972
 20
27.9105190718591
 30
0.0
 11
3.099999999999972
 21
25.24709364379604
 31
0.0
  0
LINE
  5
104
  8
0
 10
3.240476133832027
 20
24.72282957508405
 30
0.0
 11
3.135727729895341
 21
24.97571459250481
 31
0.0
  0
LINE
  5
105
  8
0
 10
-18.88825500000095
 20
-19.0322582871874
 30
0.0
 11
-18.88825500000095
 21
-12.43225828718741
 31
0.0
  0
LINE
  5
106
  8
0
 10
17.51906230808124
 20
23.14084893989913
 30
0.0
 11
17.55491949833253
 21
23.41296662219387
 31
0.0
  0
LINE
  5
107
  8
0
 10
19.46731075808454
 20
25.77240208778336
 30
0.0
 11
19.74992158763106
 21
25.54810618272753
 31
0.0
  0
LINE
  5
108
  8
0
 10
-20.00000000000001
 20
-11.32445245595265
 30
0.0
 11
-19.98873952961186
 21
-8.201715405942556
 31
0.0
  0
LINE
  5
109
  8
0
 10
5.169031874962277
 20
29.69659285269726
 30
0.0
 11
6.885143014609218
 21
29.49633915191769
 31
0.0
  0
LINE
  5
10A
  8
0
 10
18.01887803003725
 20
25.1444834351197
 30
0.0
 11
17.55491949833253
 21
23.41296662219387
 31
0.0
  0
LINE
  5
10B
  8
0
 10
20.00000000000001
 20
24.88366377974866
 30
0.0
 11
19.98904516310014
 21
19.97957256384977
 31
0.0
  0
LINE
  5
10C
  8
0
 10
-19.95762720431745
 20
-7.697529765690398
 30
0.0
 11
-19.93939802078116
 21
-7.453607510263519
 31
0.0
  0
LINE
  5
10D
  8
0
 10
-19.97281844139582
 20
-19.96806002129751
 30
0.0
 11
-19.89392283317479
 21
-19.81281914536839
 31
0.0
  0
LINE
  5
10E
  8
0
 10
-19.87401838661596
 20
-6.754523002779508
 30
0.0
 11
-19.8486611473754
 21
-6.532388919883741
 31
0.0
  0
LINE
  5
10F
  8
0
 10
-19.89759361193037
 20
-6.982104128808052
 30
0.0
 11
-19.87401838661596
 21
-6.754523002779508
 31
0.0
  0
LINE
  5
110
  8
0
 10
-19.11782801015811
 20
-11.98522273283029
 30
0.0
 11
-19.27276771442606
 21
-11.90772247960997
 31
0.0
  0
LINE
  5
111
  8
0
 10
-18.88825500000095
 20
-12.43225828718741
 30
0.0
 11
-18.91553764417929
 21
-12.26117860243645
 31
0.0
  0
LINE
  5
112
  8
0
 10
3.279406380946271
 20
28.65184304179994
 30
0.0
 11
3.15118822158049
 21
28.29050198999972
 31
0.0
  0
LINE
  5
113
  8
0
 10
-19.61603618702081
 20
-19.6100368739541
 30
0.0
 11
-19.44412750000048
 21
-19.58225828718741
 31
0.0
  0
LINE
  5
114
  8
0
 10
3.566025403784451
 20
24.29856550637208
 30
0.0
 11
3.665925826289056
 21
24.05738455147464
 31
0.0
  0
LINE
  5
115
  8
0
 10
3.665925826289056
 20
24.05738455147464
 30
0.0
 11
3.700000000000016
 21
23.7985655063722
 31
0.0
  0
LINE
  5
116
  8
0
 10
3.700000000000016
 20
23.7985655063722
 30
0.0
 11
3.665925826289056
 21
23.53974646126966
 31
0.0
  0
LINE
  5
117
  8
0
 10
-18.91553764417929
 20
-12.26117860243645
 30
0.0
 11
-18.99467902873301
 21
-12.10707071017013
 31
0.0
  0
LINE
  5
118
  8
0
 10
18.01887803003725
 20
25.1444834351197
 30
0.0
 11
18.1731404374509
 21
25.47064389204345
 31
0.0
  0
LINE
  5
119
  8
0
 10
-19.89392283317479
 20
-19.81281914536839
 30
0.0
 11
-19.77100220457567
 21
-19.68947099734574
 31
0.0
  0
LINE
  5
11A
  8
0
 10
3.199999999999994
 20
22.93254010258776
 30
0.0
 11
2.958819045102507
 21
22.83263968008311
 31
0.0
  0
LINE
  5
11B
  8
0
 10
2.958819045102507
 20
22.83263968008311
 30
0.0
 11
2.699999999999973
 21
22.7985655063722
 31
0.0
  0
LINE
  5
11C
  8
0
 10
-18.99467902873301
 20
-12.10707071017013
 30
0.0
 11
-19.11782801015811
 21
-11.98522273283029
 31
0.0
  0
LINE
  5
11D
  8
0
 10
2.699999999999973
 20
22.7985655063722
 30
0.0
 11
-2.699999999999747
 21
22.7985655063722
 31
0.0
  0
LINE
  5
11E
  8
0
 10
-19.7294120511525
 20
-5.698323019628499
 30
0.0
 11
-19.69514474228166
 21
-5.503424152396668
 31
0.0
  0
LINE
  5
11F
  8
0
 10
-20.00000000000001
 20
-20.14006411842217
 30
0.0
 11
-19.97281844139582
 21
-19.96806002129751
 31
0.0
  0
LINE
  5
120
  8
0
 10
3.135727729895341
 20
24.97571459250481
 30
0.0
 11
3.099999999999972
 21
25.24709364379604
 31
0.0
  0
LINE
  5
121
  8
0
 10
-2.958819045102281
 20
22.83263968008311
 30
0.0
 11
-2.699999999999747
 21
22.7985655063722
 31
0.0
  0
LINE
  5
122
  8
0
 10
-3.200000000000265
 20
22.93254010258776
 30
0.0
 11
-2.958819045102281
 21
22.83263968008311
 31
0.0
  0
LINE
  5
123
  8
0
 10
-19.76189734609729
 20
-5.898668929993154
 30
0.0
 11
-19.7294120511525
 21
-5.698323019628499
 31
0.0
  0
LINE
  5
124
  8
0
 10
17.55479282102134
 20
22.86871459521763
 30
0.0
 11
17.51906230808124
 21
23.14084893989913
 31
0.0
  0
LINE
  5
125
  8
0
 10
3.566025403784451
 20
23.29856550637217
 30
0.0
 11
3.407106781186567
 21
23.09145872518565
 31
0.0
  0
LINE
  5
126
  8
0
 10
-19.27276771442606
 20
-11.90772247960997
 30
0.0
 11
-19.44412750000048
 21
-11.8822582871874
 31
0.0
  0
LINE
  5
127
  8
0
 10
3.479176142985514
 20
28.97910332701948
 30
0.0
 11
3.279406380946271
 21
28.65184304179994
 31
0.0
  0
LINE
  5
128
  8
0
 10
-19.79260062711611
 20
-6.104461883490565
 30
0.0
 11
-19.76189734609729
 21
-5.898668929993154
 31
0.0
  0
LINE
  5
129
  8
0
 10
-19.8486611473754
 20
-6.532388919883741
 30
0.0
 11
-19.82152189420874
 21
-6.315701880120753
 31
0.0
  0
LINE
  5
12A
  8
0
 10
4.409457467637494
 20
29.62734981932776
 30
0.0
 11
4.056536019069045
 21
29.47750422130229
 31
0.0
  0
LINE
  5
12B
  8
0
 10
-19.82152189420874
 20
-6.315701880120753
 30
0.0
 11
-19.79260062711611
 21
-6.104461883490565
 31
0.0
  0
LINE
  5
12C
  8
0
 10
5.169031874962277
 20
29.69659285269726
 30
0.0
 11
4.785647197881508
 21
29.70143449362782
 31
0.0
  0
LINE
  5
12D
  8
0
 10
3.741962010799233
 20
29.25830010311947
 30
0.0
 11
3.479176142985514
 21
28.97910332701948
 31
0.0
  0
LINE
  5
12E
  8
0
 10
11.31592582628899
 20
22.53974646126948
 30
0.0
 11
16.53192528825022
 21
21.1421236177149
 31
0.0
  0
LINE
  5
12F
  8
0
 10
-19.91938682331882
 20
-7.215132297969374
 30
0.0
 11
-19.89759361193037
 21
-6.982104128808052
 31
0.0
  0
LINE
  5
130
  8
0
 10
-19.93939802078116
 20
-7.453607510263519
 30
0.0
 11
-19.91938682331882
 21
-7.215132297969374
 31
0.0
  0
LINE
  5
131
  8
0
 10
3.15118822158049
 20
28.29050198999972
 30
0.0
 11
3.099999999999972
 21
27.9105190718591
 31
0.0
  0
LINE
  5
132
  8
0
 10
4.785647197881508
 20
29.70143449362782
 30
0.0
 11
4.409457467637494
 21
29.62734981932776
 31
0.0
  0
LINE
  5
133
  8
0
 10
-11.8737470562444
 20
27.46645829643614
 30
0.0
 11
-11.96196840190031
 21
27.08308854390178
 31
0.0
  0
LINE
  5
134
  8
0
 10
-16.79074433335276
 20
21.10804944400394
 30
0.0
 11
-17.04956337845529
 21
21.14212361771481
 31
0.0
  0
LINE
  5
135
  8
0
 10
-5.169031874962367
 20
29.69659285269726
 30
0.0
 11
-6.885143014609308
 21
29.49633915191769
 31
0.0
  0
LINE
  5
136
  8
0
 10
-17.29074433335156
 20
21.24202404021941
 30
0.0
 11
-17.49785111453881
 21
21.40094266281725
 31
0.0
  0
LINE
  5
137
  8
0
 10
-3.566025403784496
 20
23.29856550637217
 30
0.0
 11
-3.407106781186928
 21
23.09145872518565
 31
0.0
  0
LINE
  5
138
  8
0
 10
-3.279406380946361
 20
28.65184304179994
 30
0.0
 11
-3.151188221580625
 21
28.29050198999972
 31
0.0
  0
LINE
  5
139
  8
0
 10
-3.665925826289462
 20
24.05738455147464
 30
0.0
 11
-3.700000000000467
 21
23.7985655063722
 31
0.0
  0
LINE
  5
13A
  8
0
 10
-3.479176142985244
 20
28.97910332701948
 30
0.0
 11
-3.279406380946361
 21
28.65184304179994
 31
0.0
  0
LINE
  5
13B
  8
0
 10
-11.96196840190031
 20
27.08308854390178
 30
0.0
 11
-11.97415763415094
 21
26.68988783738579
 31
0.0
  0
LINE
  5
13C
  8
0
 10
-11.56328121021042
 20
25.00837064364934
 30
0.0
 11
-11.90985181218858
 21
26.30178973864097
 31
0.0
  0
LINE
  5
13D
  8
0
 10
-11.31592582628912
 20
22.53974646126948
 30
0.0
 11
-11.07474487139087
 21
22.63964688377418
 31
0.0
  0
LINE
  5
13E
  8
0
 10
-5.169031874962367
 20
29.69659285269726
 30
0.0
 11
-4.785647197881282
 21
29.70143449362782
 31
0.0
  0
LINE
  5
13F
  8
0
 10
-3.741962010799233
 20
29.25830010311947
 30
0.0
 11
-3.479176142985244
 21
28.97910332701948
 31
0.0
  0
LINE
  5
140
  8
0
 10
-11.31592582628912
 20
22.53974646126948
 30
0.0
 11
-16.53192528825022
 21
21.1421236177149
 31
0.0
  0
LINE
  5
141
  8
0
 10
-17.75667015964135
 20
21.84923039890122
 30
0.0
 11
-17.79401833670631
 21
22.11231620824793
 31
0.0
  0
LINE
  5
142
  8
0
 10
-11.71284419877576
 20
27.82543690784067
 30
0.0
 11
-11.8737470562444
 21
27.46645829643614
 31
0.0
  0
LINE
  5
143
  8
0
 10
-11.45853280627409
 20
24.75548562622925
 30
0.0
 11
-11.56328121021042
 21
25.00837064364934
 31
0.0
  0
LINE
  5
144
  8
0
 10
-3.151188221580625
 20
28.29050198999972
 30
0.0
 11
-3.100000000000107
 21
27.9105190718591
 31
0.0
  0
LINE
  5
145
  8
0
 10
-11.29190215891982
 20
24.53832833870449
 30
0.0
 11
-11.45853280627409
 21
24.75548562622925
 31
0.0
  0
LINE
  5
146
  8
0
 10
-11.97415763415094
 20
26.68988783738579
 30
0.0
 11
-11.90985181218858
 21
26.30178973864097
 31
0.0
  0
LINE
  5
147
  8
0
 10
-17.65676973713778
 20
21.60804944400378
 30
0.0
 11
-17.75667015964135
 21
21.84923039890122
 31
0.0
  0
LINE
  5
148
  8
0
 10
-17.79401833670631
 20
22.11231620824793
 30
0.0
 11
-17.75994416299521
 21
22.37253922926262
 31
0.0
  0
LINE
  5
149
  8
0
 10
-4.40945746763763
 20
29.62734981932776
 30
0.0
 11
-4.056536019069045
 21
29.47750422130229
 31
0.0
  0
LINE
  5
14A
  8
0
 10
-10.86747008928998
 20
28.62737145500141
 30
0.0
 11
-11.19996629504792
 21
28.41712957966716
 31
0.0
  0
LINE
  5
14B
  8
0
 10
-11.48537083773575
 20
28.14639055403386
 30
0.0
 11
-11.71284419877576
 21
27.82543690784067
 31
0.0
  0
LINE
  5
14C
  8
0
 10
-17.55479282102134
 20
22.86871459521763
 30
0.0
 11
-17.51906230808115
 21
23.14084893989913
 31
0.0
  0
LINE
  5
14D
  8
0
 10
-17.51906230808115
 20
23.14084893989913
 30
0.0
 11
-17.5549194983328
 21
23.41296662219387
 31
0.0
  0
LINE
  5
14E
  8
0
 10
-16.53192528825022
 20
21.1421236177149
 30
0.0
 11
-16.79074433335276
 21
21.10804944400394
 31
0.0
  0
LINE
  5
14F
  8
0
 10
-10.2760924582917
 20
28.83149494191297
 30
0.0
 11
-10.50051025631969
 21
28.76913130112785
 31
0.0
  0
LINE
  5
150
  8
0
 10
-3.100000000000107
 20
27.9105190718591
 30
0.0
 11
-3.100000000000107
 21
25.24709364379604
 31
0.0
  0
LINE
  5
151
  8
0
 10
-10.5747448713917
 20
23.50567228755888
 30
0.0
 11
-10.60881904510307
 21
23.76449133266142
 31
0.0
  0
LINE
  5
152
  8
0
 10
-11.19996629504792
 20
28.41712957966716
 30
0.0
 11
-11.48537083773575
 21
28.14639055403386
 31
0.0
  0
LINE
  5
153
  8
0
 10
-3.700000000000467
 20
23.7985655063722
 30
0.0
 11
-3.665925826289462
 21
23.53974646126966
 31
0.0
  0
LINE
  5
154
  8
0
 10
-18.01887803003725
 20
25.1444834351197
 30
0.0
 11
-17.5549194983328
 21
23.41296662219387
 31
0.0
  0
LINE
  5
155
  8
0
 10
-4.056536019069045
 20
29.47750422130229
 30
0.0
 11
-3.741962010799233
 21
29.25830010311947
 31
0.0
  0
LINE
  5
156
  8
0
 10
-10.60881904510307
 20
23.76449133266142
 30
0.0
 11
-10.70871946760826
 21
24.00567228756427
 31
0.0
  0
LINE
  5
157
  8
0
 10
-3.13572772989516
 20
24.97571459250481
 30
0.0
 11
-3.100000000000107
 21
25.24709364379604
 31
0.0
  0
LINE
  5
158
  8
0
 10
-10.8676380902056
 20
22.79856550637211
 30
0.0
 11
-10.70871946760776
 21
23.00567228755886
 31
0.0
  0
LINE
  5
159
  8
0
 10
-3.566025403784542
 20
24.29856550637208
 30
0.0
 11
-3.665925826289462
 21
24.05738455147464
 31
0.0
  0
LINE
  5
15A
  8
0
 10
-10.70871946760776
 20
23.00567228755886
 30
0.0
 11
-10.60881904510307
 21
23.24685324245639
 31
0.0
  0
LINE
  5
15B
  8
0
 10
-6.885143014609308
 20
29.49633915191769
 30
0.0
 11
-10.2760924582917
 21
28.83149494191297
 31
0.0
  0
LINE
  5
15C
  8
0
 10
-4.785647197881282
 20
29.70143449362782
 30
0.0
 11
-4.40945746763763
 21
29.62734981932776
 31
0.0
  0
LINE
  5
15D
  8
0
 10
-10.70871946760826
 20
24.00567228756427
 30
0.0
 11
-10.867638090207
 21
24.21277906875184
 31
0.0
  0
LINE
  5
15E
  8
0
 10
-3.240476133831892
 20
24.72282957508405
 30
0.0
 11
-3.13572772989516
 21
24.97571459250481
 31
0.0
  0
LINE
  5
15F
  8
0
 10
-10.50051025631969
 20
28.76913130112785
 30
0.0
 11
-10.86747008928998
 21
28.62737145500141
 31
0.0
  0
LINE
  5
160
  8
0
 10
-19.93541049466516
 20
25.23863663758758
 30
0.0
 11
-19.74992158763106
 21
25.54810618272753
 31
0.0
  0
LINE
  5
161
  8
0
 10
-19.65909541948468
 20
-5.313972328297614
 30
0.0
 11
-19.69514474228166
 21
-5.503424152396668
 31
0.0
  0
LINE
  5
162
  8
0
 10
10.60881904510302
 20
23.24685324245639
 30
0.0
 11
10.5747448713917
 21
23.50567228755888
 31
0.0
  0
LINE
  5
163
  8
0
 10
10.86763809020556
 20
22.79856550637211
 30
0.0
 11
11.07474487139091
 21
22.63964688377418
 31
0.0
  0
LINE
  5
164
  8
0
 10
-19.46731075808481
 20
25.77240208778336
 30
0.0
 11
-19.12380536444183
 21
25.88277227642172
 31
0.0
  0
LINE
  5
165
  8
0
 10
11.29190215891973
 20
24.53832833870449
 30
0.0
 11
10.86763809020704
 21
24.21277906875184
 31
0.0
  0
LINE
  5
166
  8
0
 10
17.04956337845529
 20
21.14212361771481
 30
0.0
 11
17.29074433335165
 21
21.24202404021941
 31
0.0
  0
LINE
  5
167
  8
0
 10
17.6567697371376
 20
21.60804944400378
 30
0.0
 11
17.49785111453877
 21
21.40094266281725
 31
0.0
  0
LINE
  5
168
  8
0
 10
17.75994416299508
 20
22.37253922926262
 30
0.0
 11
17.55479282102134
 21
22.86871459521763
 31
0.0
  0
LINE
  5
169
  8
0
 10
3.240476133832027
 20
24.72282957508405
 30
0.0
 11
3.566025403784451
 21
24.29856550637208
 31
0.0
  0
LINE
  5
16A
  8
0
 10
19.74992158763106
 20
25.54810618272753
 30
0.0
 11
19.93541049466493
 21
25.23863663758758
 31
0.0
  0
LINE
  5
16B
  8
0
 10
3.665925826289056
 20
23.53974646126966
 30
0.0
 11
3.566025403784451
 21
23.29856550637217
 31
0.0
  0
LINE
  5
16C
  8
0
 10
3.199999999999994
 20
22.93254010258776
 30
0.0
 11
3.407106781186567
 21
23.09145872518565
 31
0.0
  0
LINE
  5
16D
  8
0
 10
-3.200000000000265
 20
22.93254010258776
 30
0.0
 11
-3.407106781186928
 21
23.09145872518565
 31
0.0
  0
LINE
  5
16E
  8
0
 10
19.46731075808454
 20
25.77240208778336
 30
0.0
 11
19.12380536444174
 21
25.88277227642172
 31
0.0
  0
LINE
  5
16F
  8
0
 10
-10.5747448713917
 20
23.50567228755888
 30
0.0
 11
-10.60881904510307
 21
23.24685324245639
 31
0.0
  0
LINE
  5
170
  8
0
 10
-3.566025403784542
 20
24.29856550637208
 30
0.0
 11
-3.240476133831892
 21
24.72282957508405
 31
0.0
  0
LINE
  5
171
  8
0
 10
-10.867638090207
 20
24.21277906875184
 30
0.0
 11
-11.29190215891982
 21
24.53832833870449
 31
0.0
  0
LINE
  5
172
  8
0
 10
-17.65676973713778
 20
21.60804944400378
 30
0.0
 11
-17.49785111453881
 21
21.40094266281725
 31
0.0
  0
LINE
  5
173
  8
0
 10
-10.8676380902056
 20
22.79856550637211
 30
0.0
 11
-11.07474487139087
 21
22.63964688377418
 31
0.0
  0
LINE
  5
174
  8
0
 10
-17.75994416299521
 20
22.37253922926262
 30
0.0
 11
-17.55479282102134
 21
22.86871459521763
 31
0.0
  0
LINE
  5
175
  8
0
 10
-17.04956337845529
 20
21.14212361771481
 30
0.0
 11
-17.29074433335156
 21
21.24202404021941
 31
0.0
  0
LINE
  5
176
  8
0
 10
-3.665925826289462
 20
23.53974646126966
 30
0.0
 11
-3.566025403784496
 21
23.29856550637217
 31
0.0
  0
ENDSEC
  0
EOF
